<?xml version="1.0" encoding="UTF-8" standalone="no"?>
<!-- Created with Inkscape (http://www.inkscape.org/) -->

<svg
   version="1.1"
   id="svg1"
   width="402.91489"
   height="405.07239"
   viewBox="0 0 402.91489 405.07239"
   sodipodi:docname="Xemployeelogo.svg"
   inkscape:version="1.4.2 (f4327f4, 2025-05-13)"
   xmlns:inkscape="http://www.inkscape.org/namespaces/inkscape"
   xmlns:sodipodi="http://sodipodi.sourceforge.net/DTD/sodipodi-0.dtd"
   xmlns="http://www.w3.org/2000/svg"
   xmlns:svg="http://www.w3.org/2000/svg">
  <defs
     id="defs1" />
  <sodipodi:namedview
     id="namedview1"
     pagecolor="#ffffff"
     bordercolor="#000000"
     borderopacity="0.25"
     inkscape:showpageshadow="2"
     inkscape:pageopacity="0.0"
     inkscape:pagecheckerboard="true"
     inkscape:deskcolor="#d1d1d1"
     showgrid="false"
     inkscape:zoom="1.1396484"
     inkscape:cx="-139.51671"
     inkscape:cy="284.73693"
     inkscape:window-width="2560"
     inkscape:window-height="1369"
     inkscape:window-x="-8"
     inkscape:window-y="-8"
     inkscape:window-maximized="1"
     inkscape:current-layer="g1" />
  <g
     inkscape:groupmode="layer"
     inkscape:label="Image"
     id="g1"
     transform="translate(-346.50972,-271.03793)">
    <path
       style="fill:#000000"
       d="m 536.09475,675.68729 c -30.57944,-2.26907 -57.29975,-9.29681 -77.77908,-20.45675 -8.46935,-4.61526 -14.79414,-9.25305 -10.89108,-7.98612 4.36737,1.41764 18.62368,1.73021 26.48533,0.58068 21.40043,-3.12915 49.64545,-16.37535 69.92217,-32.79172 l 5.40751,-4.37801 4.09249,3.90359 c 15.24075,14.53722 32.75171,24.8901 52.19211,30.85716 8.21406,2.52124 10.25773,2.73632 26.50242,2.78921 17.26978,0.0562 17.5472,0.0907 14.6975,1.82453 -7.84018,4.77027 -23.84862,12.08712 -34.42197,15.73296 -22.70324,7.82841 -52.37666,11.69277 -76.2074,9.92447 z m 97.47521,-40.02371 c -34.89763,-5.09738 -67.5499,-30.68969 -100.46055,-78.73935 l -7.08108,-10.33839 -13.30187,12.89965 c -32.95269,31.95628 -65.69311,58.2667 -83.48175,67.08647 l -7.17989,3.55985 -4.32011,-2.89988 c -10.06834,-6.75839 -40.07157,-40.03134 -39.74951,-44.08137 0.0388,-0.48836 3.97633,-3.43682 8.75,-6.55213 10.6933,-6.97849 32.522,-24.42195 50.30644,-40.20021 29.53225,-26.20087 59.93471,-55.03225 59.4268,-56.35586 -1.1207,-2.9205 -18.16848,-28.23305 -25.14117,-37.32964 -8.56557,-11.17463 -23.31093,-25.7801 -31.91268,-31.6099 -26.57858,-18.01352 -53.86052,-19.89439 -76.48284,-5.27288 l -6.1912,4.00156 0.67753,-3.08478 c 2.70683,-12.32408 18.48726,-41.7456 30.53939,-56.93856 40.40605,-50.936 84.06366,-58.3664 132.49441,-22.55017 16.65209,12.3148 41.70088,40.26718 61.73981,68.89651 1.91538,2.73649 3.41769,1.64451 17.26436,-12.54889 20.47718,-20.98994 44.20746,-52.44349 53.47998,-70.88562 2.20048,-4.37655 4.36573,-7.95736 4.81166,-7.95736 1.4792,0 15.54573,10.11913 23.6669,17.02541 4.4,3.74178 12.39675,11.28817 17.77055,16.76975 11.00201,11.22268 10.61945,9.53682 4.78637,21.09209 -3.59988,7.13131 -14.10539,22.73656 -21.95502,32.61275 -14.41239,18.13328 -47.22161,52.24232 -66.40936,69.04036 l -6.80747,5.95964 5.26449,7.5 c 16.00934,22.80755 36.34746,44.86309 49.72855,53.92781 14.18676,9.6105 27.60022,14.07219 42.30614,14.07219 13.34031,0 22.90885,-2.7207 32.63605,-9.27965 2.3761,-1.60223 4.5256,-2.70774 4.7767,-2.45671 0.9916,0.99166 -8.3122,24.91254 -14.119,36.30091 -7.21167,14.14356 -11.90047,21.26266 -21.98163,33.37506 -17.04727,20.48212 -33.95532,31.03362 -55.49637,34.63263 -9.33017,1.55885 -9.86703,1.56847 -18.35463,0.32871 z m 57.56238,-55.83776 c 3.68926,-1.1646 6.90618,-2.44274 7.1487,-2.84032 0.24252,-0.39758 -2.71345,-0.86656 -6.56882,-1.04219 -13.37067,-0.60907 -31.48985,-6.64429 -46.10508,-15.35688 -25.57835,-15.24804 -51.73703,-43.07121 -81.15959,-86.3238 -28.73235,-42.23794 -33.61143,-48.93651 -46.61585,-63.99969 -17.91162,-20.74722 -37.52177,-35.42401 -56.36794,-42.18734 -4.77413,-1.71329 -18.76886,-4.31896 -23.03917,-4.28964 -2.90568,0.0199 -2.86571,0.0815 1.27112,1.95919 15.86722,7.20192 40.27166,28.30574 57.84014,50.01748 9.86775,12.19491 25.16973,33.16566 39.40284,54 57.183,83.70419 94.19466,114.11689 136.9859,112.56215 6.98846,-0.25392 12.74329,-1.08965 17.20775,-2.49896 z M 361.28519,549.20954 c -5.23622,-11.44737 -9.62784,-25.12649 -12.53899,-39.0568 -1.97975,-9.47339 -2.27032,-13.75213 -2.2336,-32.89011 0.0469,-24.46564 1.28339,-33.27874 6.02843,-42.96937 7.51642,-15.35052 27.09719,-24.04663 46.38411,-20.59987 7.37628,1.31822 18.526,6.32075 20.24901,9.0851 0.71658,1.14967 -1.32237,4.5317 -8.4403,14 -28.51302,37.92811 -42.82843,72.71055 -44.64807,108.48235 l -0.66119,12.9982 z m 358.1394,-28.85109 c -15.77068,-5.00871 -36.66347,-23.21976 -54.71339,-47.69053 l -2.6515,-3.5947 6.74982,-8.4053 c 9.18524,-11.43802 24.31428,-32.70711 31.72469,-44.60002 10.77068,-17.28575 20.34662,-37.2448 20.42218,-42.56579 0.0315,-2.2168 0.0475,-2.21922 1.58296,-0.23948 4.05352,5.22646 14.23794,27.68115 18.36894,40.5 7.1748,22.26421 8.5163,31.32148 8.5163,57.5 0,25.85807 -1.4454,34.65079 -6.864,41.75509 -6.4242,8.42262 -13.0801,10.53445 -23.136,7.34073 z M 552.23012,329.86619 c -3.64392,-4.62579 -15.5372,-13.82902 -24.42827,-18.90303 -19.82692,-11.31494 -35.07163,-15.97651 -55.29071,-16.90694 l -12.91345,-0.59424 5.41345,-2.81017 c 2.9774,-1.54559 9.91345,-4.59428 15.41345,-6.77488 35.82136,-14.20215 77.04132,-16.70962 116.45835,-7.08434 11.38933,2.78118 29.26057,9.13646 35.04165,12.46134 l 2.5,1.43783 -3.06166,0.0354 c -5.62444,0.0651 -18.84186,4.12827 -28.02972,8.61662 -12.00628,5.86518 -24.58693,14.26004 -37.18339,24.81184 -5.65112,4.73384 -10.60112,8.58208 -11,8.55165 -0.39887,-0.0304 -1.71274,-1.30893 -2.9197,-2.84111 z"
       id="path1"
       sodipodi:nodetypes="ssssscsssssssscsscsssssssscsssssssssssscssssssssssssssssscsssssssssssscssscssssssssssscsssscssssss" />
  </g>
</svg>
